<?xml version="1.0" encoding="iso-8859-1"?>
<!-- Generator: Adobe Illustrator 19.0.0, SVG Export Plug-In . SVG Version: 6.00 Build 0)  -->
<svg xmlns="http://www.w3.org/2000/svg" xmlns:xlink="http://www.w3.org/1999/xlink" version="1.1" id="Capa_1" x="0px" y="0px" viewBox="0 0 469.981 469.981" style="enable-background:new 0 0 469.981 469.981;" xml:space="preserve" width="512px" height="512px">
<g>
	<path d="M118.585,337.081c-2.926,2.926-2.926,7.686,0,10.612c2.926,2.926,7.686,2.926,10.612,0c2.926-2.926,2.926-7.686,0-10.612   C126.271,334.155,121.511,334.155,118.585,337.081z" fill="#481e08"/>
	<path d="M88.061,367.605c-2.926,2.926-2.926,7.686,0,10.612s7.686,2.926,10.612,0c2.926-2.926,2.926-7.686,0-10.612   C95.747,364.679,90.986,364.679,88.061,367.605z" fill="#481e08"/>
	<path d="M424.762,2.197C423.355,0.79,421.448,0,419.459,0s-3.896,0.79-5.304,2.197L120.41,295.942   c-0.015,0.014-0.029,0.028-0.043,0.043c-0.014,0.014-0.028,0.028-0.042,0.043l-91.521,91.521   c-7.122,7.121-11.043,16.621-11.043,26.749s3.922,19.628,11.043,26.75l17.872,17.872c7.375,7.375,17.062,11.062,26.749,11.062   c9.688,0,19.375-3.688,26.75-11.062l14.297-14.298c1.407-1.407,2.197-3.314,2.197-5.303c0-1.989-0.79-3.897-2.197-5.303   c-4.312-4.312-6.687-10.045-6.687-16.143s2.375-11.831,6.687-16.143l34.383-34.383c2.929-2.929,2.929-7.678,0-10.606   c-2.929-2.929-7.678-2.929-10.606,0l-34.383,34.383c-7.145,7.145-11.08,16.645-11.08,26.749c0,7.557,2.201,14.776,6.299,20.924   l-9.517,9.517c-8.901,8.902-23.385,8.9-32.286,0l-17.872-17.872c-4.288-4.289-6.65-10.021-6.65-16.144   c0-6.122,2.362-11.854,6.65-16.143l86.26-86.26l75.483,75.483c1.479,1.479,3.514,2.274,5.598,2.191   c2.09-0.082,4.051-1.033,5.409-2.624L430.178,131.65C453.219,104.669,467.432,44.867,424.762,2.197z M418.772,121.909   L206.023,371.035l-69.746-69.747l282.95-282.95C448.918,53.787,437.206,100.323,418.772,121.909z" fill="#481e08"/>
	<path d="M420.708,54.396c-0.888-4.045-4.889-6.604-8.934-5.718c-4.046,0.888-6.606,4.887-5.719,8.933   c4.196,19.123-3.966,37.638-10.097,44.816L199.018,333.042c-2.69,3.15-2.317,7.884,0.833,10.574   c1.413,1.207,3.144,1.797,4.867,1.797c2.118,0,4.223-0.893,5.707-2.629l196.941-230.615   C417.335,100.495,425.762,77.437,420.708,54.396z" fill="#481e08"/>
</g>
<g>
</g>
<g>
</g>
<g>
</g>
<g>
</g>
<g>
</g>
<g>
</g>
<g>
</g>
<g>
</g>
<g>
</g>
<g>
</g>
<g>
</g>
<g>
</g>
<g>
</g>
<g>
</g>
<g>
</g>
</svg>
