<svg id="Layer_1" data-name="Layer 1" xmlns="http://www.w3.org/2000/svg" viewBox="0 0 288.99 152.1"><defs><style>.cls-1,.cls-2,.cls-5{fill:#99ca45;}.cls-1,.cls-2,.cls-3{stroke:#99ca45;stroke-linecap:round;stroke-linejoin:round;}.cls-1,.cls-3{stroke-width:1.18px;}.cls-2{stroke-width:1.18px;}.cls-3{fill:none;}.cls-4{fill:#a6ce39;}.cls-6{fill:#fff;opacity:0.8;}.cls-10,.cls-11,.cls-7,.cls-9{fill:#532507;}.cls-10,.cls-11,.cls-7,.cls-8,.cls-9{fill-rule:evenodd;}.cls-8{fill:#d2ab67;}.cls-10,.cls-11,.cls-9{stroke:#532f09;stroke-miterlimit:22.93;}.cls-9{stroke-width:0.2px;}.cls-10{stroke-width:0.18px;}.cls-11{stroke-width:0.54px;}</style></defs><title>zaliojivirtuvelogo9</title><path class="cls-1" d="M843.59,558.09l-13.6,28h11v3.47H824.51l13.6-28h-10.8v-3.47Zm19.93,31.51h-3.43V582.2H849.75v7.41h-3.47V582.2h-2v-3.43h2v-4.94a15.83,15.83,0,0,1,15.48-15.74h1.76V589.6Zm-3.43-10.84V561.69a12.37,12.37,0,0,0-10.34,12.14v4.94Zm21.1,10.84h-13.6V558.09h3.47v28h10.13v3.47Zm7.45,0h-3.43V558.09h3.43V589.6Zm35.54-15.78a15.79,15.79,0,1,1-4.62-11.11,15.2,15.2,0,0,1,4.62,11.11Zm-3.43,0a12.32,12.32,0,1,0-3.6,8.68,11.81,11.81,0,0,0,3.6-8.68Zm12,8.45a12.26,12.26,0,0,1-12.05,12.18l-.08-3.39a8.58,8.58,0,0,0,6.13-2.66,8.44,8.44,0,0,0,2.53-6.13V558h3.47v24.27Zm7.37,7.32H936.7V558.09h3.43V589.6Z" transform="translate(-815 -465)"/><polygon class="cls-1" points="171.09 93.09 161.13 124.6 157.87 124.6 147.91 93.09 151.55 93.09 159.5 118.7 167.45 93.09 171.09 93.09 171.09 93.09"/><polygon class="cls-2" points="21.21 87.47 22.7 83.65 25.46 83.65 22.42 89.94 19.82 89.94 16.9 83.65 19.69 83.65 21.21 87.47 21.21 87.47"/><polygon class="cls-1" points="177.98 124.6 174.55 124.6 174.55 93.09 177.98 93.09 177.98 124.6 177.98 124.6"/><path class="cls-1" d="M1013.76,589.6a14.9,14.9,0,0,1-6.36-1.4,15.89,15.89,0,0,1-5.19-3.83v5.23h-3.43V558.09h2.55a12,12,0,0,1,9.58,19.38,12,12,0,0,1-6.36,4.31,11.84,11.84,0,0,0,9.21,4.35v3.47ZM1010,570.14a8.37,8.37,0,0,0-2.22-5.78,8.14,8.14,0,0,0-5.52-2.76v17.12a8.67,8.67,0,0,0,7.74-8.58Z" transform="translate(-815 -465)"/><polygon class="cls-1" points="215.17 96.56 208.97 96.56 208.97 124.6 205.54 124.6 205.54 96.56 199.35 96.56 199.35 93.09 215.17 93.09 215.17 96.56 215.17 96.56"/><path class="cls-1" d="M1049.52,581.44a8.16,8.16,0,0,1-16.32,0V558.09h3.47v23.35a4.72,4.72,0,0,0,4.69,4.69,4.56,4.56,0,0,0,3.35-1.38,4.51,4.51,0,0,0,1.38-3.31V558.09h3.43v23.35Z" transform="translate(-815 -465)"/><polygon class="cls-1" points="260.43 93.09 250.47 124.6 247.2 124.6 237.24 93.09 240.88 93.09 248.84 118.7 256.79 93.09 260.43 93.09 260.43 93.09"/><path class="cls-3" d="M1094.27,589.65a15.37,15.37,0,0,1-11-4.75,15.17,15.17,0,0,1-4.58-11.07v-4.9h-2v-3.47h2v-7.37H1094v3.47h-11.84v3.89h12.05v3.47h-12.05v4.9a12.29,12.29,0,0,0,12.09,12.3v3.52Z" transform="translate(-815 -465)"/><path class="cls-4" d="M1094.27,589.65a15.37,15.37,0,0,1-11-4.75,15.17,15.17,0,0,1-4.58-11.07v-4.9h-2v-3.47h2v-7.37H1094v3.47h-11.84v3.89h12.05v3.47h-12.05v4.9a12.29,12.29,0,0,0,12.09,12.3v3.52Z" transform="translate(-815 -465)"/><path class="cls-1" d="M1086.67,550.93a2.28,2.28,0,1,1-2.28,2.28,2.28,2.28,0,0,1,2.28-2.28Z" transform="translate(-815 -465)"/><path class="cls-5" d="M896.7,617.08a6.24,6.24,0,0,1-2.66-.59,6.66,6.66,0,0,1-2.17-1.6v2.19h-1.44v-13.2h1.07a5,5,0,0,1,4,8.12,5,5,0,0,1-2.66,1.81,5,5,0,0,0,3.86,1.82v1.45Zm-1.6-8.15a3.51,3.51,0,0,0-.93-2.42,3.41,3.41,0,0,0-2.31-1.16v7.17a3.63,3.63,0,0,0,3.24-3.59Zm12.6,8.15H906.2l-1-3.21h-4.56l-1,3.21h-1.52l1-3.21h-.77v-1.51h1.23l2.65-8.43h1.37l4.1,13.15Zm-3-4.72-1.81-5.78-1.81,5.78Zm14.86-8.48-3.31,13.2-1.38,0-1.65-5.77-1.63,5.77-1.4,0-3.3-13.2h1.49l2.52,10.32,1.63-5.71h1.38l1.63,5.71,2.51-10.32Zm15.84,0-4.17,13.2H929.9l-4.17-13.2h1.53l3.33,10.73,3.33-10.73Zm7.9,13.22a6.44,6.44,0,0,1-4.6-2,6.35,6.35,0,0,1-1.92-4.64v-2.05H936V607h.84v-3.08h6.42v1.45h-5V607h5v1.45h-5v2.05a5.15,5.15,0,0,0,5.07,5.15v1.47Zm8.68,0h-.74a6.6,6.6,0,0,1,0-13.2v1.45a5.15,5.15,0,0,0-5,5.14,5.18,5.18,0,0,0,4.33,5.1v-7.15h-2V607H952v10.11Zm11.13,0h-1.51l-1-3.21h-4.56l-1,3.21h-1.52l1-3.21h-.77v-1.51H955l2.65-8.43H959l4.1,13.15Zm-3-4.72-1.81-5.78-1.81,5.78Zm10.5,4.72h-1.44V607a5.7,5.7,0,0,0-1.48-1.1,5.34,5.34,0,0,0-1.76-.55v11.69h-1.46v-13.2h.74a7.21,7.21,0,0,1,2.09.34,6.72,6.72,0,0,1,1.88.94v-1.28h1.44v13.2Zm13.41-8.66h-4.49v8.66h-1.44v-8.66h-.93V607h.93v-3.08h5.77v1.45h-4.33V607h4.49v1.45Zm14.28,2.05a6.61,6.61,0,1,1-1.94-4.65,6.37,6.37,0,0,1,1.94,4.65Zm-1.44,0a5.16,5.16,0,1,0-1.51,3.64,4.95,4.95,0,0,0,1.51-3.64Zm15.83,0a6.61,6.61,0,1,1-1.94-4.65,6.37,6.37,0,0,1,1.94,4.65Zm-1.44,0a5.16,5.16,0,1,0-1.51,3.64,4.95,4.95,0,0,0,1.51-3.64Zm10,0a6.63,6.63,0,0,1-6.5,6.61H1014v-13.2h.72a6.41,6.41,0,0,1,4.6,2,6.33,6.33,0,0,1,1.9,4.61Zm-1.46,0a5,5,0,0,0-1.23-3.33,5,5,0,0,0-3.1-1.75v10.18a5,5,0,0,0,3.1-1.75,5,5,0,0,0,1.23-3.35Z" transform="translate(-815 -465)"/><ellipse class="cls-6" cx="137.41" cy="41.56" rx="31.88" ry="31.84"/><path class="cls-7" d="M816,597.75h287a1,1,0,0,1,1,1h0a1,1,0,0,1-1,1H816a1,1,0,0,1-1-1h0a1,1,0,0,1,1-1Z" transform="translate(-815 -465)"/><path class="cls-7" d="M945.84,502.77a2.74,2.74,0,0,1,2.35,1c.95,1,5.67,6.71,6.29,6.81s.93.83,1.65-.21,6.13-7.17,6.95-7.92a18.82,18.82,0,0,1,1.71-1.65c.67-.46.27-.85-.13-1.19s-.54-.21-1-.25h-4.41c-.25,0-.36-.22-.45-.45l-.37-1c-.09-.23.2-.45.45-.45h3.86a3.1,3.1,0,0,1-.51-1.71v-.35c0-1.72.5-2.95,2.21-3.12l3.66-.38a13.9,13.9,0,0,1,2.36,0l3.46.4c1.71.2,1.9,1.37,1.9,3.09v.35a3.1,3.1,0,0,1-.51,1.71h4.28c.25,0,.55.22.45.45l-.47,1c-.1.22-.2.45-.45.45h-4c-.19.31-1.26.3-1.77.58-.81.45-1.29,1-1.85,1.2-.91.25-3.35-.23-4,.08a7.15,7.15,0,0,0-2.61,1.92c-.93,1.13-4.33,7.94-5.47,9.08s-3.1,4.13-3.92,4a18.28,18.28,0,0,1-6-3.89,14,14,0,0,1-1.49,1.4c-.7.82-2.75,2.56-2.75,4.64s5.31,13.4,5.72,16.77-.06,2.78-.06,2.78-13.82-2-17.47-5a25.35,25.35,0,0,1-3-2.19c-1.24-1.13-3.3-3.3-3.3-3.3l5.57-3.82a25.2,25.2,0,0,1-1.65-2,50.88,50.88,0,0,0-4.33-4.54c-1.55-1.44-1.55-2.17-.72-3.51a31.5,31.5,0,0,1,4.54-6,39,39,0,0,1,5.47-4.54,7.53,7.53,0,0,1,1.7-.55c.33,0,1.64.22,2.22-.17s.65-3,.11-3.15a10,10,0,0,1-3.37-.89c-1.06-.66-1.32-1.43-2.14-2.67s-2.74-1-2.34-3.82,1.88-5.19,3.2-6c1.86-1.12,4.06-1.55,5.84-.3s4.07,1.36,5,2.6a6,6,0,0,1,1.11,3.35c.05.74-.26,1.6-.17,2.09.27,1.48-.79,4.57-2.18,5.06s-2.17-.72-2.38.21-.26,3.08.88,3.39c.16,0,1.07.29,2.24.48Zm-10.51,6.13c.79.1,1.29,2.67,1.78,4.16s1.19,4.06.89,5.15-2.28,4-2.77,3.86-4.16-4.85-4.85-5.55-1.49-1.29-1.49-1.88,2.77-2.28,3.76-3.07a31.81,31.81,0,0,0,2.67-2.67Z" transform="translate(-815 -465)"/><path class="cls-8" d="M944.7,502.55c.16,0,.4.06.81.15a29.47,29.47,0,0,0,1.44,3.52c1,1.52,2.34,2.61,2.79,4.41a3.68,3.68,0,0,1,0,1,3.6,3.6,0,0,1-1,1.72c-.85.91-3.23,2.4-3.23,5.19s4.53,11.91,5.2,15,.87,4.8.75,5.16a43.6,43.6,0,0,1-17.58-5.12s4.79-9.37,5.92-11.54,1-3.61,1.55-5.37,1.54-3.61,1.44-5.06-2.71-3.72-3.49-5.16a20.26,20.26,0,0,1-1.44-3.87,4,4,0,0,1,.54,0,9.74,9.74,0,0,0,2.33,4.44,3.69,3.69,0,0,0,3.59,1.15c1.64-.65,1.56-2.66,1.21-3.88a4,4,0,0,0-.85-1.76Z" transform="translate(-815 -465)"/><path class="cls-8" d="M952.38,473.12a33.44,33.44,0,1,1-33.44,33.44,33.44,33.44,0,0,1,33.44-33.44Zm0,1.59a31.85,31.85,0,1,1-31.85,31.85,31.85,31.85,0,0,1,31.85-31.85Z" transform="translate(-815 -465)"/><path class="cls-9" d="M964.35,470.44a3,3,0,0,1,.72.29c1.13.63.08,1.69.56,1.62s.95-1.13.57-1.55a2.54,2.54,0,0,0-.86-.54,10.58,10.58,0,0,1,4.1.18c1.55.38,4,1.09,4.53,3.05a3.12,3.12,0,0,1-1.88,3.64c-1.2.34-2.53.15-2.87-1.22a1.57,1.57,0,0,1,1-2.1,1.15,1.15,0,0,1,1.45.67c.11.38.06.38,0,.38a.54.54,0,0,0-.68-.25.55.55,0,1,0,.35,1,.94.94,0,0,0,.47-1.41,1.38,1.38,0,0,0-1.76-.67,2,2,0,0,0-1.23,2.35,2.35,2.35,0,0,0,2.56,1.77,3.27,3.27,0,0,0,.91-.13,3.35,3.35,0,0,0,2.26-4.17c-.63-2.19-3.13-3.14-5.1-3.68a12,12,0,0,0-5.34.11c-1.71.37-5.4,2.62-7.34,2.54s-3.68-1.37-3.59-3.38a3.58,3.58,0,0,1,3.67-3.49,3.45,3.45,0,0,1,2.61,1.38,2.6,2.6,0,0,1,.31,1.24,2.49,2.49,0,0,1-2.91,2.54,2.16,2.16,0,0,1-1.29-1,1.66,1.66,0,0,1-.2-1.28.76.76,0,0,0,1.52-.11.83.83,0,0,0-.73-.82c-.85,0-1.2.87-1.16,1.59a2.34,2.34,0,0,0,2.23,2.09,2.86,2.86,0,0,0,2.92-1.89,2.79,2.79,0,0,0-.19-2.64h0a3.74,3.74,0,0,0-1.86-1.31,4,4,0,0,0-1.1-.21,4.08,4.08,0,0,0-4.21,3.94,3.9,3.9,0,0,0,4.52,3.74c1.73-.2,3.79-1.35,5.95-2q.54-.17,1.07-.3Z" transform="translate(-815 -465)"/><path class="cls-10" d="M964.35,470.44a3,3,0,0,1,.72.29c1.13.63.08,1.69.56,1.62s.95-1.13.57-1.55a2.54,2.54,0,0,0-.86-.54,10.58,10.58,0,0,1,4.1.18c1.55.38,4,1.09,4.53,3.05a3.12,3.12,0,0,1-1.88,3.64c-1.2.34-2.53.15-2.87-1.22a1.57,1.57,0,0,1,1-2.1,1.15,1.15,0,0,1,1.45.67c.11.38.06.38,0,.38a.54.54,0,0,0-.68-.25.55.55,0,1,0,.35,1,.94.94,0,0,0,.47-1.41,1.38,1.38,0,0,0-1.76-.67,2,2,0,0,0-1.23,2.35,2.35,2.35,0,0,0,2.56,1.77,3.27,3.27,0,0,0,.91-.13,3.35,3.35,0,0,0,2.26-4.17c-.63-2.19-3.13-3.14-5.1-3.68a12,12,0,0,0-5.34.11c-1.71.37-5.4,2.62-7.34,2.54s-3.68-1.37-3.59-3.38a3.58,3.58,0,0,1,3.67-3.49,3.45,3.45,0,0,1,2.61,1.38,2.6,2.6,0,0,1,.31,1.24,2.49,2.49,0,0,1-2.91,2.54,2.16,2.16,0,0,1-1.29-1,1.66,1.66,0,0,1-.2-1.28.76.76,0,0,0,1.52-.11.83.83,0,0,0-.73-.82c-.85,0-1.2.87-1.16,1.59a2.34,2.34,0,0,0,2.23,2.09,2.86,2.86,0,0,0,2.92-1.89,2.79,2.79,0,0,0-.19-2.64h0a3.74,3.74,0,0,0-1.86-1.31,4,4,0,0,0-1.1-.21,4.08,4.08,0,0,0-4.21,3.94,3.9,3.9,0,0,0,4.52,3.74c1.73-.2,3.79-1.35,5.95-2q.54-.17,1.07-.3Z" transform="translate(-815 -465)"/><path class="cls-9" d="M940.5,470.44a3,3,0,0,0-.72.29c-1.13.63-.08,1.69-.56,1.62s-.95-1.13-.57-1.55a2.54,2.54,0,0,1,.86-.54,10.58,10.58,0,0,0-4.1.18c-1.55.38-4,1.09-4.53,3.05a3.12,3.12,0,0,0,1.88,3.64c1.2.34,2.53.15,2.87-1.22a1.57,1.57,0,0,0-1-2.1,1.15,1.15,0,0,0-1.45.67c-.11.38-.06.38,0,.38a.54.54,0,0,1,.68-.25.55.55,0,1,1-.35,1,.94.94,0,0,1-.47-1.41,1.38,1.38,0,0,1,1.76-.67,2,2,0,0,1,1.23,2.35,2.35,2.35,0,0,1-2.56,1.77,3.27,3.27,0,0,1-.91-.13,3.35,3.35,0,0,1-2.26-4.17c.63-2.19,3.13-3.14,5.1-3.68a12,12,0,0,1,5.34.11c1.71.37,5.4,2.62,7.34,2.54s3.68-1.37,3.59-3.38A3.58,3.58,0,0,0,948,465.5a3.45,3.45,0,0,0-2.61,1.38,2.6,2.6,0,0,0-.31,1.24,2.49,2.49,0,0,0,2.91,2.54,2.16,2.16,0,0,0,1.29-1,1.66,1.66,0,0,0,.2-1.28.77.77,0,0,1-.72.65.78.78,0,0,1-.8-.76.83.83,0,0,1,.73-.82c.85,0,1.2.87,1.16,1.59a2.34,2.34,0,0,1-2.24,2.09,2.85,2.85,0,0,1-2.92-1.89,2.79,2.79,0,0,1,.19-2.64h0a3.74,3.74,0,0,1,1.86-1.31,4,4,0,0,1,1.1-.21A4.08,4.08,0,0,1,952,469a3.91,3.91,0,0,1-4.52,3.74c-1.72-.2-3.79-1.35-5.95-2q-.54-.17-1.07-.3Z" transform="translate(-815 -465)"/><path class="cls-10" d="M940.5,470.44a3,3,0,0,0-.72.29c-1.13.63-.08,1.69-.56,1.62s-.95-1.13-.57-1.55a2.54,2.54,0,0,1,.86-.54,10.58,10.58,0,0,0-4.1.18c-1.55.38-4,1.09-4.53,3.05a3.12,3.12,0,0,0,1.88,3.64c1.2.34,2.53.15,2.87-1.22a1.57,1.57,0,0,0-1-2.1,1.15,1.15,0,0,0-1.45.67c-.11.38-.06.38,0,.38a.54.54,0,0,1,.68-.25.55.55,0,1,1-.35,1,.94.94,0,0,1-.47-1.41,1.38,1.38,0,0,1,1.76-.67,2,2,0,0,1,1.23,2.35,2.35,2.35,0,0,1-2.56,1.77,3.27,3.27,0,0,1-.91-.13,3.35,3.35,0,0,1-2.26-4.17c.63-2.19,3.13-3.14,5.1-3.68a12,12,0,0,1,5.34.11c1.71.37,5.4,2.62,7.34,2.54s3.68-1.37,3.59-3.38A3.58,3.58,0,0,0,948,465.5a3.45,3.45,0,0,0-2.61,1.38,2.6,2.6,0,0,0-.31,1.24,2.49,2.49,0,0,0,2.91,2.54,2.16,2.16,0,0,0,1.29-1,1.66,1.66,0,0,0,.2-1.28.77.77,0,0,1-.72.65.78.78,0,0,1-.8-.76.83.83,0,0,1,.73-.82c.85,0,1.2.87,1.16,1.59a2.34,2.34,0,0,1-2.24,2.09,2.85,2.85,0,0,1-2.92-1.89,2.79,2.79,0,0,1,.19-2.64h0a3.74,3.74,0,0,1,1.86-1.31,4,4,0,0,1,1.1-.21A4.08,4.08,0,0,1,952,469a3.91,3.91,0,0,1-4.52,3.74c-1.72-.2-3.79-1.35-5.95-2q-.54-.17-1.07-.3Z" transform="translate(-815 -465)"/><path class="cls-11" d="M992.91,535.08a3,3,0,0,1-2.4,3.5c-1.88.26-3.07-2.21-1.33-3a1.07,1.07,0,0,1,1.5.81.61.61,0,1,1-1.2.2.6.6,0,0,1,.39-.7c0-.05,0-.19-.41-.09-1.44.34-.8,2.69,1.17,2.45,1.54-.19,2.08-1.83,1.91-3.2a3.59,3.59,0,0,0-3.75-2.71,3.44,3.44,0,0,0-2.58,2,4.28,4.28,0,0,0-.41,1.57c0,.07,0,.14,0,.22.4,3.15-2.51,5.85-5.84,5.74-2.42-.08-5.43-1.43-8.52-2.14q-.77-.18-1.53-.29a4.23,4.23,0,0,0-1,.49c-1.5,1,.09,2.37-.59,2.31s-1.45-1.46-1-2.09a3.55,3.55,0,0,1,1.14-.86,14.77,14.77,0,0,0-5.68.74c-2.12.71-5.39,2-5.94,4.78a4.35,4.35,0,0,0,3.05,4.83c1.71.33,3.53-.1,3.84-2,.17-1.09-.07-2.53-1.65-2.81a1.61,1.61,0,0,0-1.93,1.1c-.11.54,0,.54,0,.53a.76.76,0,0,1,.91-.42.77.77,0,1,1-.36,1.49,1.31,1.31,0,0,1-.83-1.91,1.92,1.92,0,0,1,2.37-1.14,2.77,2.77,0,0,1,2,3.12,3.28,3.28,0,0,1-3.35,2.77,4.54,4.54,0,0,1-1.29-.07,4.68,4.68,0,0,1-3.64-5.53c.61-3.12,4-4.74,6.65-5.72a16.73,16.73,0,0,1,7.44-.47c2.43.31,7.82,3,10.51,2.66s5-2.34,4.6-5.13a5,5,0,0,0-5.51-4.42,4.82,4.82,0,0,0-3.46,2.23,3.63,3.63,0,0,0-.29,1.76,3.47,3.47,0,0,0,4.35,3.18,3,3,0,0,0,1.68-1.5,2.32,2.32,0,0,0,.13-1.8,1.06,1.06,0,0,1-2.12,0,1.16,1.16,0,0,1,.92-1.23c1.17-.15,1.78,1.07,1.8,2.08a3.27,3.27,0,0,1-2.86,3.17,4,4,0,0,1-4.28-2.28,3.9,3.9,0,0,1,0-3.7h0a5.22,5.22,0,0,1,2.43-2,5.53,5.53,0,0,1,1.51-.42,5.66,5.66,0,0,1,6,3.76,5.12,5.12,0,0,1,.54-1.36,3.49,3.49,0,0,1,2.63-1.68,3.76,3.76,0,0,1,1.85.24,9.58,9.58,0,0,0,2.3-.49,2.35,2.35,0,0,0,1.62-2.08c0-.82-.74-1.62-.51-1.85.44-.45,2.33,1.58,1.48,3.07s-3.57,1.68-4.19,1.71l.21.15,1.24.13a17.42,17.42,0,0,0,3.35.14c2.29-.14,2.73-1.19,2.91-2.21s-.68-2.54-.31-2.78c.74-.48,3,3,1.44,4.77s-5.28.69-8.09.46a3.63,3.63,0,0,1,.89,2Z" transform="translate(-815 -465)"/><path class="cls-11" d="M911.83,535.08a3,3,0,0,0,2.4,3.5c1.88.26,3.06-2.21,1.33-3a1.07,1.07,0,0,0-1.5.81.61.61,0,1,0,1.2.2.6.6,0,0,0-.39-.7c0-.05,0-.19.41-.09,1.44.34.8,2.69-1.17,2.45-1.54-.19-2.08-1.83-1.91-3.2a3.59,3.59,0,0,1,3.75-2.71,3.44,3.44,0,0,1,2.58,2,4.29,4.29,0,0,1,.41,1.57c0,.07,0,.14,0,.22-.4,3.15,2.51,5.85,5.84,5.74,2.42-.08,5.43-1.43,8.52-2.14q.77-.18,1.53-.29a4.23,4.23,0,0,1,1,.49c1.49,1-.09,2.37.59,2.31s1.45-1.46,1-2.09a3.55,3.55,0,0,0-1.14-.86,14.77,14.77,0,0,1,5.68.74c2.12.71,5.39,2,5.94,4.78a4.35,4.35,0,0,1-3,4.83c-1.71.33-3.53-.1-3.84-2-.17-1.09.07-2.53,1.65-2.81a1.61,1.61,0,0,1,1.93,1.1c.11.54,0,.54,0,.53a.76.76,0,0,0-.91-.42.77.77,0,1,0,.36,1.49,1.31,1.31,0,0,0,.83-1.91,1.92,1.92,0,0,0-2.37-1.14,2.77,2.77,0,0,0-2,3.12,3.28,3.28,0,0,0,3.35,2.77,4.54,4.54,0,0,0,1.29-.07,4.68,4.68,0,0,0,3.64-5.53c-.61-3.12-4-4.74-6.65-5.72a16.73,16.73,0,0,0-7.44-.47c-2.43.31-7.82,3-10.51,2.66s-5-2.34-4.6-5.13a5,5,0,0,1,5.51-4.42,4.82,4.82,0,0,1,3.46,2.23,3.63,3.63,0,0,1,.29,1.76,3.47,3.47,0,0,1-4.35,3.18,3,3,0,0,1-1.68-1.5,2.32,2.32,0,0,1-.13-1.8,1.08,1.08,0,0,0,.92,1,1.09,1.09,0,0,0,1.2-1,1.16,1.16,0,0,0-.92-1.23c-1.17-.15-1.78,1.07-1.8,2.08a3.27,3.27,0,0,0,2.86,3.17,4,4,0,0,0,4.28-2.28,3.9,3.9,0,0,0,0-3.7h0a5.22,5.22,0,0,0-2.43-2,5.52,5.52,0,0,0-1.51-.42,5.66,5.66,0,0,0-6,3.76,5.11,5.11,0,0,0-.54-1.36,3.49,3.49,0,0,0-2.63-1.68,3.76,3.76,0,0,0-1.85.24,9.58,9.58,0,0,1-2.3-.49,2.35,2.35,0,0,1-1.62-2.08c0-.82.74-1.62.51-1.85-.44-.45-2.33,1.58-1.48,3.07s3.57,1.68,4.19,1.71l-.21.15-1.24.13a17.42,17.42,0,0,1-3.35.14c-2.29-.14-2.73-1.19-2.91-2.21s.68-2.54.31-2.78c-.74-.48-3,3-1.44,4.77s5.28.69,8.09.46a3.63,3.63,0,0,0-.89,2Z" transform="translate(-815 -465)"/></svg>